#!OML:ASF F:\VICON\USERDATA\INSTALL\rory3\rory3.ASF
:FULLY-SPECIFIED
:DEGREES
1072
root 0.398683 16.4977 -0.577951 33.8238 -21.4341 2.71679
lowerback -19.5355 -4.52347 -0.592909
upperback -21.734 -6.55843 2.0757
thorax -13.5325 -3.36328 2.24489
lowerneck -6.90701 8.13663 0.398906
upperneck 10.313 9.5629 12.5644
head 3.60017 5.40576 4.22231
rclavicle 9.0447e-015 1.07344e-014
rhumerus -34.9726 -37.0273 23.9567
rradius 19.1064
rwrist 14.4837
rhand 15.3992 2.29045
rfingers 7.12502
rthumb 40.2273 -22.8666
lclavicle 9.0447e-015 1.07344e-014
lhumerus 64.2006 -2.33123 20.1968
lradius 32.4306
lwrist -11.186
lhand 3.54268 21.9066
lfingers 7.12502
lthumb 28.979 49.674
rfemur -62.032 11.9034 19.9806
rtibia 40.7468
rfoot -54.0785 -37.8914
rtoes 40.8438
lfemur -12.0979 -3.55471 -22.5581
ltibia 26.2398
lfoot -7.65642 44.1468
ltoes 36.4794
1073
root 0.412883 16.5002 -0.552006 33.8748 -21.4782 2.80001
lowerback -19.8891 -4.54269 -0.461727
upperback -21.642 -6.58626 2.13415
thorax -13.2232 -3.40012 2.19287
lowerneck -6.67555 8.21185 0.274501
upperneck 10.3389 9.6959 12.4806
head 3.55761 5.45709 4.20891
rclavicle -4.1049e-014 -3.4191e-014
rhumerus -34.1697 -36.793 23.2533
rradius 19.1664
rwrist 14.0823
rhand 15.0561 1.89132
rfingers 7.12502
rthumb 39.9045 -23.3635
lclavicle -4.1049e-014 -3.4191e-014
lhumerus 64.0966 -2.11487 20.2315
lradius 32.4382
lwrist -11.0091
lhand 4.1871 21.9751
lfingers 7.12502
lthumb 29.5943 49.6351
rfemur -62.0684 11.8494 19.7379
rtibia 40.876
rfoot -54.648 -37.1068
rtoes 41.5822
lfemur -11.9999 -3.63058 -22.7536
ltibia 26.0923
lfoot -2.19277 44.248
ltoes 31.2727
1074
root 0.423354 16.491 -0.583958 33.7133 -21.9624 3.18968
lowerback -19.5009 -4.61035 -1.28884
upperback -21.5832 -6.59237 2.12269
thorax -13.2601 -3.28086 2.65394
lowerneck -6.68446 8.14398 0.499153
upperneck 10.183 9.62748 12.1127
head 3.54783 5.40697 4.05674
rclavicle -1.10127e-013 -5.725e-014
rhumerus -33.2195 -34.6904 21.8745
rradius 19.3192
rwrist 11.6565
rhand 14.8981 1.19549
rfingers 7.12502
rthumb 39.7557 -24.1038
lclavicle -1.10127e-013 -5.725e-014
lhumerus 64.3431 -1.91074 20.126
lradius 32.4872
lwrist -10.8733
lhand 4.38881 21.9594
lfingers 7.12502
lthumb 29.7868 49.5851
rfemur -62.377 12.0935 19.1285
rtibia 40.8652
rfoot -53.86 -38.3685
rtoes 40.1101
lfemur -12.1165 -3.59159 -23.316
ltibia 26.0513
lfoot 0.986649 44.179
ltoes 27.2672
1075
root 0.434409 16.4967 -0.56694 33.8759 -21.8892 3.13637
lowerback -19.8589 -4.48159 -1.0603
upperback -21.3006 -6.43378 1.88326
thorax -12.7502 -3.26548 2.215
lowerneck -7.50472 7.99878 1.13115
upperneck 10.3985 9.32409 11.8161
head 3.81852 5.29311 3.91225
rclavicle 4.16454e-014 3.85642e-014
rhumerus -34.5707 -37.7922 23.7676
rradius 19.013
rwrist 14.9037
rhand 16.014 1.96345
rfingers 7.12502
rthumb 40.8053 -23.0145
lclavicle 4.16454e-014 3.85642e-014
lhumerus 65.082 -1.61705 19.6619
lradius 32.5527
lwrist -10.5106
lhand 4.40314 22.217
lfingers 7.12502
lthumb 29.8005 49.8402
rfemur -62.4521 12.0492 19.0731
rtibia 40.927
rfoot -54.3147 -37.7958
rtoes 40.1243
lfemur -12.1599 -3.52526 -23.2814
ltibia 25.9874
lfoot 1.118 44.0172
ltoes 26.9769
1076
root 0.446265 16.4936 -0.567584 34.1179 -21.7537 3.03626
lowerback -20.1105 -4.45901 -0.79696
upperback -21.1636 -6.42692 1.7948
thorax -12.4739 -3.31313 1.9386
lowerneck -7.91495 7.97957 1.54594
upperneck 10.7095 9.20758 11.6832
head 4.01757 5.26517 3.83806
rclavicle 4.02539e-014 -6.12257e-014
rhumerus -34.9874 -39.1029 24.3231
rradius 18.8511
rwrist 16.4312
rhand 16.325 2.2271
rfingers 7.12502
rthumb 41.0974 -22.6583
lclavicle 4.02539e-014 -6.12257e-014
lhumerus 65.3977 -1.40224 19.1309
lradius 32.6044
lwrist -9.98457
lhand 4.19042 22.5773
lfingers 7.12502
lthumb 29.5975 50.2367
rfemur -62.697 12.0404 19.1359
rtibia 40.8321
rfoot -53.6633 -38.964
rtoes 39.1297
lfemur -12.3988 -3.13483 -23.127
ltibia 26.0936
lfoot -1.93055 43.8958
ltoes 31.4444
1077
root 0.456862 16.4949 -0.56232 34.2437 -21.6083 2.91917
lowerback -20.4244 -4.52335 -0.472376
upperback -21.0971 -6.53604 1.92462
thorax -12.2351 -3.40829 1.86074
lowerneck -7.28739 8.05317 1.34206
upperneck 10.4006 9.39699 11.6588
head 3.79768 5.32197 3.82485
rclavicle 5.46658e-015 -1.19271e-014
rhumerus -34.2565 -39.3272 23.7649
rradius 18.8286
rwrist 16.6295
rhand 16.4962 2.09647
rfingers 7.12502
rthumb 41.2581 -22.7373
lclavicle 5.46658e-015 -1.19271e-014
lhumerus 65.0901 -1.21654 18.9128
lradius 32.6518
lwrist -9.82184
lhand 4.4432 22.7975
lfingers 7.12502
lthumb 29.8387 50.4138
rfemur -62.7575 12.0185 19.2262
rtibia 40.7869
rfoot -53.5397 -39.3042
rtoes 39.1938
lfemur -12.5052 -3.0394 -22.9408
ltibia 26.1597
lfoot -4.02109 43.9951
ltoes 34.3681
